<svg width="431" height="47" viewBox="0 0 431 47" fill="none" xmlns="http://www.w3.org/2000/svg">
<path d="M0 30V0.499998H1.5V30H0ZM6 30V0.499998H7.5V30H6ZM9 30V0.499998H10.5V30H9ZM15 30V0.499998H16.5V30H15ZM21 30V0.499998H22.5V30H21ZM24 30V0.499998H28.5V30H24ZM30 30V0.499998H31.5V30H30ZM33 30V0.499998H37.5V30H33ZM39 30V0.499998H40.5V30H39ZM45 30V0.499998H46.5V30H45ZM24 46.1C23.2333 46.1 22.55 45.9167 21.95 45.55C21.3833 45.1833 20.9333 44.6667 20.6 44C20.2333 43.3333 20.05 42.5667 20.05 41.7C20.05 40.8333 20.2333 40.0667 20.6 39.4C20.9333 38.7333 21.3833 38.2167 21.95 37.85C22.55 37.45 23.2333 37.25 24 37.25C24.7667 37.25 25.4333 37.45 26 37.85C26.6 38.2167 27.0667 38.7333 27.4 39.4C27.7333 40.0667 27.9 40.8333 27.9 41.7C27.9 42.5667 27.7333 43.3333 27.4 44C27.0667 44.6667 26.6 45.1833 26 45.55C25.4333 45.9167 24.7667 46.1 24 46.1ZM24 45C24.4667 45 24.9 44.85 25.3 44.55C25.6667 44.2833 25.9667 43.9 26.2 43.4C26.4 42.8667 26.5 42.2833 26.5 41.65C26.5 40.6833 26.2667 39.9 25.8 39.3C25.3333 38.7 24.7333 38.4 24 38.4C23.2667 38.4 22.6667 38.7 22.2 39.3C21.7333 39.9 21.5 40.6833 21.5 41.65C21.5 42.2833 21.6 42.8667 21.8 43.4C22.0333 43.9 22.3333 44.2833 22.7 44.55C23.0667 44.85 23.5 45 24 45ZM47.998 30V0.499998H49.498V30H47.998ZM53.998 30V0.499998H55.498V30H53.998ZM56.998 30V0.499998H58.498V30H56.998ZM62.998 30V0.499998H64.498V30H62.998ZM68.998 30V0.499998H70.498V30H68.998ZM71.998 30V0.499998H73.498V30H71.998ZM74.998 30V0.499998H76.498V30H74.998ZM77.998 30V0.499998H82.498V30H77.998ZM83.998 30V0.499998H88.498V30H83.998ZM92.998 30V0.499998H94.4981V30H92.998ZM75.598 45.15C74.798 45.7833 73.898 46.1 72.898 46.1C71.9647 46.1 71.298 45.8167 70.898 45.25C70.498 44.65 70.298 43.7167 70.298 42.45C70.298 42.2167 70.3147 41.85 70.348 41.35L70.548 38.55H68.648V37.45H70.598L70.748 35.2L72.198 34.95H72.398V35.05C72.3314 35.15 72.2814 35.25 72.248 35.35C72.1814 35.45 72.148 35.5833 72.148 35.75L71.948 37.45H74.748V38.55H71.848L71.698 41.45C71.6647 41.95 71.648 42.2667 71.648 42.4C71.648 43.4 71.7647 44.0833 71.998 44.45C72.2314 44.7833 72.598 44.95 73.098 44.95C73.4647 44.95 73.8147 44.8833 74.148 44.75C74.448 44.6167 74.798 44.4 75.198 44.1L75.598 45.15ZM95.9961 30V0.499998H97.4961V30H95.9961ZM101.996 30V0.499998H103.496V30H101.996ZM104.996 30V0.499998H106.496V30H104.996ZM110.996 30V0.499998H112.496V30H110.996ZM116.996 30V0.499998H118.496V30H116.996ZM119.996 30V0.499998H124.496V30H119.996ZM125.996 30V0.499998H130.496V30H125.996ZM131.996 30V0.499998H133.496V30H131.996ZM134.996 30V0.499998H136.496V30H134.996ZM140.996 30V0.499998H142.496V30H140.996ZM116.046 37.45H117.296V38.3C117.496 38 117.746 37.75 118.046 37.55C118.346 37.35 118.663 37.25 118.996 37.25C119.363 37.25 119.696 37.3667 119.996 37.6C120.263 37.8333 120.429 38.1333 120.496 38.5C120.663 38.1333 120.929 37.8333 121.296 37.6C121.629 37.3667 122.013 37.25 122.446 37.25C122.979 37.25 123.396 37.45 123.696 37.85C123.963 38.25 124.079 38.7833 124.046 39.45V45.95H122.846V39.95C122.846 39.2167 122.779 38.75 122.646 38.55C122.513 38.35 122.313 38.25 122.046 38.25C121.813 38.25 121.596 38.35 121.396 38.55C121.196 38.75 121.029 39.0167 120.896 39.35C120.763 39.6833 120.696 40.0167 120.696 40.35V45.95H119.446V40.05C119.446 39.35 119.379 38.8833 119.246 38.65C119.113 38.3833 118.863 38.25 118.496 38.25C118.329 38.25 118.146 38.3333 117.946 38.5C117.746 38.6667 117.579 38.9167 117.446 39.25C117.346 39.55 117.296 39.9 117.296 40.3V45.95H116.046V37.45ZM143.994 30V0.499998H145.494V30H143.994ZM149.994 30V0.499998H151.494V30H149.994ZM152.994 30V0.499998H154.494V30H152.994ZM158.994 30V0.499998H160.494V30H158.994ZM164.994 30V0.499998H166.494V30H164.994ZM167.994 30V0.499998H172.494V30H167.994ZM173.994 30V0.499998H175.494V30H173.994ZM176.994 30V0.499998H181.494V30H176.994ZM182.994 30V0.499998H184.494V30H182.994ZM188.994 30V0.499998H190.494V30H188.994ZM167.994 46.1C167.227 46.1 166.544 45.9167 165.944 45.55C165.377 45.1833 164.927 44.6667 164.594 44C164.227 43.3333 164.044 42.5667 164.044 41.7C164.044 40.8333 164.227 40.0667 164.594 39.4C164.927 38.7333 165.377 38.2167 165.944 37.85C166.544 37.45 167.227 37.25 167.994 37.25C168.761 37.25 169.427 37.45 169.994 37.85C170.594 38.2167 171.061 38.7333 171.394 39.4C171.727 40.0667 171.894 40.8333 171.894 41.7C171.894 42.5667 171.727 43.3333 171.394 44C171.061 44.6667 170.594 45.1833 169.994 45.55C169.427 45.9167 168.761 46.1 167.994 46.1ZM167.994 45C168.461 45 168.894 44.85 169.294 44.55C169.661 44.2833 169.961 43.9 170.194 43.4C170.394 42.8667 170.494 42.2833 170.494 41.65C170.494 40.6833 170.261 39.9 169.794 39.3C169.327 38.7 168.727 38.4 167.994 38.4C167.261 38.4 166.661 38.7 166.194 39.3C165.727 39.9 165.494 40.6833 165.494 41.65C165.494 42.2833 165.594 42.8667 165.794 43.4C166.027 43.9 166.327 44.2833 166.694 44.55C167.061 44.85 167.494 45 167.994 45ZM191.992 30V0.499998H193.492V30H191.992ZM197.992 30V0.499998H199.492V30H197.992ZM200.992 30V0.499998H202.492V30H200.992ZM206.992 30V0.499998H208.492V30H206.992ZM212.992 30V0.499998H214.492V30H212.992ZM215.992 30V0.499998H217.492V30H215.992ZM221.992 30V0.499998H226.492V30H221.992ZM227.992 30V0.499998H232.492V30H227.992ZM233.992 30V0.499998H235.492V30H233.992ZM236.992 30V0.499998H238.492V30H236.992ZM212.292 45.05L217.542 38.65H212.642V37.45H219.242V38.35L214.092 44.8H218.892C219.092 44.8 219.242 44.7833 219.342 44.75C219.409 44.7167 219.492 44.6667 219.592 44.6H219.692V45.95H212.292V45.05ZM239.99 30V0.499998H241.49V30H239.99ZM245.99 30V0.499998H247.49V30H245.99ZM248.99 30V0.499998H250.49V30H248.99ZM254.99 30V0.499998H256.49V30H254.99ZM260.99 30V0.499998H262.49V30H260.99ZM263.99 30V0.499998H268.49V30H263.99ZM269.99 30V0.499998H271.49V30H269.99ZM272.99 30V0.499998H277.49V30H272.99ZM278.99 30V0.499998H280.49V30H278.99ZM284.99 30V0.499998H286.49V30H284.99ZM263.99 46.1C263.224 46.1 262.54 45.9167 261.94 45.55C261.374 45.1833 260.924 44.6667 260.59 44C260.224 43.3333 260.04 42.5667 260.04 41.7C260.04 40.8333 260.224 40.0667 260.59 39.4C260.924 38.7333 261.374 38.2167 261.94 37.85C262.54 37.45 263.224 37.25 263.99 37.25C264.757 37.25 265.424 37.45 265.99 37.85C266.59 38.2167 267.057 38.7333 267.39 39.4C267.724 40.0667 267.89 40.8333 267.89 41.7C267.89 42.5667 267.724 43.3333 267.39 44C267.057 44.6667 266.59 45.1833 265.99 45.55C265.424 45.9167 264.757 46.1 263.99 46.1ZM263.99 45C264.457 45 264.89 44.85 265.29 44.55C265.657 44.2833 265.957 43.9 266.19 43.4C266.39 42.8667 266.49 42.2833 266.49 41.65C266.49 40.6833 266.257 39.9 265.79 39.3C265.324 38.7 264.724 38.4 263.99 38.4C263.257 38.4 262.657 38.7 262.19 39.3C261.724 39.9 261.49 40.6833 261.49 41.65C261.49 42.2833 261.59 42.8667 261.79 43.4C262.024 43.9 262.324 44.2833 262.69 44.55C263.057 44.85 263.49 45 263.99 45ZM287.988 30V0.499998H289.488V30H287.988ZM293.988 30V0.499998H295.488V30H293.988ZM296.988 30V0.499998H298.488V30H296.988ZM302.988 30V0.499998H304.488V30H302.988ZM308.988 30V0.499998H310.488V30H308.988ZM311.988 30V0.499998H316.488V30H311.988ZM317.988 30V0.499998H319.488V30H317.988ZM320.988 30V0.499998H322.488V30H320.988ZM323.988 30V0.499998H328.488V30H323.988ZM332.988 30V0.499998H334.488V30H332.988ZM313.588 37.25C314.488 37.25 315.238 37.5667 315.838 38.2L315.238 39.2L315.188 39.4L315.038 39.3C315.005 39.1667 314.972 39.0667 314.938 39C314.872 38.9 314.755 38.8 314.588 38.7C314.288 38.5 313.922 38.4 313.488 38.4C313.055 38.4 312.638 38.5167 312.238 38.75C311.838 38.95 311.522 39.2833 311.288 39.75C311.022 40.2167 310.888 40.7833 310.888 41.45V45.95H309.538V37.45H310.938L310.888 39C311.122 38.4667 311.488 38.0333 311.988 37.7C312.488 37.4 313.022 37.25 313.588 37.25ZM335.986 30V0.499998H337.486V30H335.986ZM341.986 30V0.499998H343.486V30H341.986ZM344.986 30V0.499998H346.486V30H344.986ZM350.986 30V0.499998H352.486V30H350.986ZM356.986 30V0.499998H358.486V30H356.986ZM359.986 30V0.499998H364.486V30H359.986ZM365.986 30V0.499998H367.486V30H365.986ZM368.986 30V0.499998H373.486V30H368.986ZM374.986 30V0.499998H376.486V30H374.986ZM380.986 30V0.499998H382.486V30H380.986ZM359.986 46.1C359.22 46.1 358.536 45.9167 357.936 45.55C357.37 45.1833 356.92 44.6667 356.586 44C356.22 43.3333 356.036 42.5667 356.036 41.7C356.036 40.8333 356.22 40.0667 356.586 39.4C356.92 38.7333 357.37 38.2167 357.936 37.85C358.536 37.45 359.22 37.25 359.986 37.25C360.753 37.25 361.42 37.45 361.986 37.85C362.586 38.2167 363.053 38.7333 363.386 39.4C363.72 40.0667 363.886 40.8333 363.886 41.7C363.886 42.5667 363.72 43.3333 363.386 44C363.053 44.6667 362.586 45.1833 361.986 45.55C361.42 45.9167 360.753 46.1 359.986 46.1ZM359.986 45C360.453 45 360.886 44.85 361.286 44.55C361.653 44.2833 361.953 43.9 362.186 43.4C362.386 42.8667 362.486 42.2833 362.486 41.65C362.486 40.6833 362.253 39.9 361.786 39.3C361.32 38.7 360.72 38.4 359.986 38.4C359.253 38.4 358.653 38.7 358.186 39.3C357.72 39.9 357.486 40.6833 357.486 41.65C357.486 42.2833 357.586 42.8667 357.786 43.4C358.02 43.9 358.32 44.2833 358.686 44.55C359.053 44.85 359.486 45 359.986 45ZM383.984 30V0.499998H385.484V30H383.984ZM389.984 30V0.499998H391.484V30H389.984ZM392.984 30V0.499998H394.484V30H392.984ZM398.984 30V0.499998H400.484V30H398.984ZM404.984 30V0.499998H406.484V30H404.984ZM407.984 30V0.499998H412.484V30H407.984ZM413.984 30V0.499998H415.484V30H413.984ZM416.984 30V0.499998H418.484V30H416.984ZM419.984 30V0.499998H421.484V30H419.984ZM425.984 30V0.499998H430.484V30H425.984ZM407.034 41.7L405.934 42.75V45.95H404.584V33.6H406.084V33.7C406.018 33.8 405.968 33.8833 405.934 33.95C405.934 34.05 405.934 34.2 405.934 34.4V41.35L410.184 37.4C410.484 37.4667 410.818 37.5 411.184 37.5H411.634L408.084 40.9L412.234 45.95L410.534 46L407.034 41.7Z" fill="white"/>
</svg>
