<svg width="223" height="39" viewBox="0 0 223 39" fill="none" xmlns="http://www.w3.org/2000/svg">
<path d="M3.55 32.15H0.4V16.15H3.55V13.1H6.65V10H16.45V13.1H19.5V16.15H22.6V32.15H19.5V35.25H16.45V38.4H6.65V35.25H3.55V32.15ZM7.15 31.65V34.7H15.9V31.65H19V16.7H15.9V13.6H7.15V16.7H4.1V31.65H7.15ZM33.2 13.6H26.95V10H33.2V0.699999H36.8V10H46.05V13.6H36.8V34.7H46.05V38.4H36.25V35.25H33.2V13.6ZM50.4 10H54.1V13.1H56.65V10H60.25V13.1H65.9V10H69.5V13.1H72.6V38.4H69V13.6H66.45V16.7H63.35V38.4H59.7V13.6H57.15V16.7H54.1V38.4H50.4V10ZM78.55 32.15H75.4V16.15H78.55V13.1H81.65V10H91.45V13.1H94.5V16.15H97.6V32.15H94.5V35.25H91.45V38.4H81.65V35.25H78.55V32.15ZM82.15 31.65V34.7H90.9V31.65H94V16.7H90.9V13.6H82.15V16.7H79.1V31.65H82.15ZM100.4 31.65H103.55V28.55H106.65V25.45H109.7V22.35H112.8V19.25H115.9V16.15H119V13.6H100.4V10H122.6V16.7H119.5V19.8H116.45V22.9H113.35V26H110.25V29.05H107.15V32.15H104.1V34.7H122.6V38.4H100.4V31.65ZM128.55 32.15H125.4V16.15H128.55V13.1H131.65V10H141.45V13.1H144.5V16.15H147.6V32.15H144.5V35.25H141.45V38.4H131.65V35.25H128.55V32.15ZM132.15 31.65V34.7H140.9V31.65H144V16.7H140.9V13.6H132.15V16.7H129.1V31.65H132.15ZM153.5 10H157.1V13.1H159.65V10H169.45V13.6H160.2V16.7H157.1V38.4H153.5V10ZM178.55 32.15H175.4V16.15H178.55V13.1H181.65V10H191.45V13.1H194.5V16.15H197.6V32.15H194.5V35.25H191.45V38.4H181.65V35.25H178.55V32.15ZM182.15 31.65V34.7H190.9V31.65H194V16.7H190.9V13.6H182.15V16.7H179.1V31.65H182.15ZM200.4 0.699999H204.1V22.35H206.65V19.25H209.7V16.15H215.9V13.1H219V10H222.6V13.6H219.5V16.7H216.45V19.8H210.25V22.9H207.15V25.45H210.25V28.55H216.45V31.65H219.5V34.7H222.6V38.4H219V35.25H215.9V32.15H209.7V29.05H206.65V26H204.1V38.4H200.4V0.699999Z" fill="white"/>
</svg>
